<?xml version="1.0" encoding="UTF-8"?>
<svg id="Layer_1" data-name="Layer 1" xmlns="http://www.w3.org/2000/svg" version="1.1" viewBox="0 0 847.1 410.5">
  <defs>
    <style>
      .cls-1 {
        fill: #aaa;
        stroke-width: 0px;
      }
    </style>
  </defs>
  <path class="cls-1" d="M0,12C0,5.4,5.4,0,12,0h164.8c4.7,0,8.6,3.8,8.6,8.6h0c0,4.7-3.8,8.6-8.6,8.6H23.7c-3.6,0-6.5,2.9-6.5,6.5v144.6c0,4.7-3.8,8.6-8.6,8.6h0c-4.7,0-8.6-3.8-8.6-8.6V12Z"/>
  <path class="cls-1" d="M396.4,398.4c0,6.7-5.4,12-12,12h-36.7c-4.7,0-8.6-3.8-8.6-8.6h0c0-4.7,3.8-8.6,8.6-8.6h25.1c3.6,0,6.5-2.9,6.5-6.5v-24c0-4.7,3.8-8.6,8.6-8.6h0c4.7,0,8.6,3.8,8.6,8.6v35.7Z"/>
  <g>
    <path class="cls-1" d="M88,237.7c24,9.5,46.1,5,65.9-13.2,1.1-.8,1.8-1.6,2.6-2.6v17.9h56.7v-17.4h-12.4c-10.3,0-11.9-2.1-12.1-13.2V49.9h-48.9v17.4h.4c14,0,16.1,1.8,16.1,13.2v44c-1.3-1-2.6-2.1-4-3.1-34.3-27.9-82.8-14.5-97.6,25.6-1.6,4.2-2.6,8.4-3.4,12.6-6.6,38.8,8.4,66.5,36.6,78.1ZM83.2,173.6c.3-2.9.5-6.1.8-9,4.7-33,24.5-46.4,46.9-39,15.8,5,26.6,20.8,26.9,46.7.5,31.1-10.6,47.2-28.7,51.7-24.8,6.1-46.9-12.9-45.9-50.4Z"/>
    <path class="cls-1" d="M834.8,222.4c-3.4,0-5.3-2.1-5.5-6.8v-61.2c0-27.7-12.9-43-39-47.7-18.5-2.9-38,3.2-52.7,17.4-1.6,1.3-2.9,2.6-4.2,4.2V49.9h-44.4v17.4h.7c7.6,0,10.8,2.1,11.3,6.6v123.7l-.3,11.6c0,11.1-1.8,13.2-11.6,13.2h-11.4c.9-3.7,1.6-8,2-12.9.3-3.4.5-7.4.5-12.9s-.3-3.7-.3-5.5h-15v3.7l-.3,7.6c-.3,7.7-.5,11.1-1.1,13.5-1.1,3.7-1.3,5-2.1,6.3-1.6,3.4-5.5,4.2-8.7,1.6-2.4-2.1-3.4-4.5-3.4-9.5l-.3-7.7v-55.9c0-29.8-20-46.9-65.7-43.8-7.9.5-14.2,1.6-20.3,3.4-22.9,6.1-32.4,15.3-34.5,27.4-2.1,11.9,6.3,21.9,17.9,22.1,3.2.3,6.6-.5,9.5-2.1,9.2-5,11.1-16.1,4.2-24.3-2.1-2.4-4.7-4.2-7.4-5.5,6.9-4.5,14.2-6.6,26.6-7.1,4-.3,7.7,0,11.1.5,16.6,2.6,24,8.7,25.8,17.1,2.6,10.8,0,18.2-6.3,22.4-4.5,2.9-7.1,4-9.5,4.5-1.3.3-2.9.5-4.2.8-66.2,14.2-77.5,21.9-72.2,49.3,4.2,24.2,36.6,39.5,77.2,20,8.2-4,13.4-8.2,17.4-14.2.3,1,.5,1.8,1.1,2.9,5,13.5,14,19.8,30.6,19.3,12.1-.2,19.9-4.1,24.4-13.2v9.5h79.6v-17.4h-14.2c-4.7,0-6.3-1.3-6.6-6.6l-.3-4v-45.9c0-14.7,4.5-24.5,15.3-32.7,1.8-1.3,3.7-2.6,5.5-3.7,20.3-10.5,39.5-.3,41.9,16.6.3,2.9.5,6.3.5,11.3v58.3c0,4.7-2.1,6.6-7.7,6.6h-14.2v17.4h72.4v-17.4h-12.3ZM616.6,187.3c-.3,19.8-7.4,30.9-24.3,36.9-3.4,1.3-6.9,2.1-10.3,2.1-13.2.5-21.9-5.5-24.2-14.2-3.2-12.1,1.3-19.5,16.9-25.3,3.7-1.3,8.2-2.6,31.6-8.9,1.3-.3,2.9-.8,10.3-4v13.5Z"/>
    <path class="cls-1" d="M672,320.6l-.2-1.5v-33.7c0-25.9-16-40.4-43.9-30.8-6.6,2.1-11.9,5.9-16,11.1v-11.4h-36.4v10.8c-9.1-10.8-23.6-15.9-40.6-12.6-6.6,1.3-12.6,3.9-17.6,7.5-2-7.6-10.1-12.3-19.5-9.4-4.1,1.3-7.6,4-10.4,8.6-.3.6-.8,1.2-1,1.8-1-.5-2-1.2-3-1.6-6.9-3.8-14.2-6.3-21.6-7.1-26.2-3.3-43.2,8.4-46.8,24.7-1.5,7.2-.7,13.6,2.4,19.4v1.5c-.2,4.8-.4,6.9-.7,8.4-.7,2.3-.8,3.1-1.3,4-1,2.1-3.5,2.6-5.4,1-1.5-1.3-2.1-2.8-2.1-5.9l-.2-4.8v-35c0-13-6.2-22.2-19.6-25.8h136.4v-17.4h-12.1c-10.3,0-12.1-2.1-12.1-13.2V49.9h-45v17.4h-1.4c11.9,0,13.7,1.8,13.7,13.2v128.7c-.3,11.3-2.4,13.2-15.6,13.2h-17.4c-10.3,0-12.1-2.1-12.1-13.2V49.9h-45v17.4h-1.4c11.9,0,13.7,1.8,13.7,13.2v128.7c-.3,11.3-2.4,13.2-15.6,13.2h-7.7c.9-3.7,1.6-8,2-12.9.3-3.4.5-7.4.5-12.9s-.3-3.7-.3-5.5h-15v3.7l-.3,7.6c-.3,7.7-.5,11.1-1.1,13.5-1.1,3.7-1.3,5-2.1,6.3-1.6,3.4-5.5,4.2-8.7,1.6-2.4-2.1-3.4-4.5-3.4-9.5l-.3-7.7v-55.9c0-29.8-20-46.9-65.7-43.8-7.9.5-14.2,1.6-20.3,3.4-22.9,6.1-32.4,15.3-34.5,27.4-2.1,11.9,6.3,21.9,17.9,22.1,3.2.3,6.6-.5,9.5-2.1,9.2-5,11.1-16.1,4.2-24.3-2.1-2.4-4.7-4.2-7.4-5.5,6.9-4.5,14.2-6.6,26.6-7.1,4-.3,7.7,0,11.1.5,16.6,2.6,24,8.7,25.8,17.1,2.6,10.8,0,18.2-6.3,22.4-4.5,2.9-7.1,4-9.5,4.5-1.3.3-2.9.5-4.2.8-66.2,14.2-77.5,21.9-72.2,49.3,3.2,18.4,22.7,31.7,49.7,28.4v11.8h-.8c12.8,0,14.7,1.7,14.7,12.1v34.5c-1.2-1-2.4-1.9-3.6-2.9-31.4-25.6-75.8-13.3-89.4,23.4-1.4,3.9-2.4,7.7-3.1,11.6-.1.7-.2,1.3-.3,2h-.2v1.7c-.8,6.1-1,11.9-.7,17.3-.1,1.6-.3,2.7-.5,3.7-1,3.4-1.2,4.6-1.9,5.8-1.4,3.1-5.1,3.9-8,1.5-2.2-1.9-3.1-4.1-3.1-8.7l-.2-7v-51.2c0-27.3-18.4-43-60.1-40.1-7.2.5-13,1.5-18.6,3.1-21,5.5-29.7,14-31.6,25.1-1.9,10.9,5.8,20,16.4,20.3,2.9.2,6-.5,8.7-1.9,8.5-4.6,10.1-14.7,3.9-22.2-1.9-2.2-4.3-3.9-6.8-5.1,6.3-4.1,13-6,24.4-6.5,3.6-.2,7,0,10.1.5,15.2,2.4,22,8,23.7,15.7,2.4,9.9,0,16.7-5.8,20.5-4.1,2.7-6.5,3.6-8.7,4.1-1.2.3-2.7.5-3.9.7-60.6,13-71,20-66.2,45.2,3.9,22.2,33.6,36.2,70.8,18.4,7.5-3.6,12.3-7.5,15.9-13.1.2,1,.5,1.7,1,2.7,4.6,12.3,12.8,18.1,28,17.6,7.9-.1,13.9-2,18.1-6.1,5.8,12.7,16,22.1,29.3,27.6,22,8.7,42.3,4.6,60.4-12.1,1-.7,1.7-1.5,2.4-2.4v16.4h51.9v-15.9h-11.3c-9.4,0-10.9-1.9-11.1-12.1v-140h-26.2c3.3-1.2,6.7-2.6,10.1-4.2,8.2-4,13.4-8.2,17.4-14.2.3,1,.5,1.8,1.1,2.9,5,13.5,14,19.8,30.6,19.3,2.6,0,5-.3,7.2-.7-9,3.7-13.1,8.6-14.1,14.7-1.3,7.4,4,13.7,11.2,13.9,2,.2,4.1-.3,5.9-1.3,5.8-3.1,6.9-10,2.6-15.2-1.3-1.5-3-2.6-4.6-3.5,4.3-2.8,8.9-4.1,16.7-4.5,2.5-.2,4.8,0,6.9.3,10.4,1.6,15,5.4,16.2,10.7,1.7,6.8,0,11.4-4,14-2.8,1.8-4.5,2.5-5.9,2.8-.8.2-1.8.3-2.6.5-41.4,8.9-48.5,13.7-45.2,30.8,2.6,15.2,22.9,24.7,48.3,12.5,5.1-2.5,8.4-5.1,10.9-8.9.2.7.3,1.2.7,1.8,3.1,8.4,8.7,12.4,19.1,12,.7,0,1.4,0,2.1,0-.2,4.8,2.2,9.5,7.2,12.9,1.6,1.2,3.3,2,4.8,2.5-1.7.7-3.5,1.6-5.6,3.1-1.2.8-2.3,1.7-3.5,2.6-8.9,8.4-6.9,20.6,5.8,26.7,4,1.8,7.3,2.6,16.3,4.1,4,.7,8.2,1,13.9,1.2,29.7,1.3,44.9-4.6,52.3-13.9,8.9-11,4.8-27-8.7-33.3-5.8-2.6-13.4-4.1-29.4-4.3h-5.4c-15,.3-19,0-21.9-.5-9.2-1.5-11.5-6.1-9.1-10.2,2.3-3.8,4.5-4.6,7.3-3.8,9.4,2.3,11,2.6,15.2,3,32,2.8,48.3-12.9,46-35.9-.2-1.5-.5-3-.8-4.5l-1-4.1-.2-.5c-.5-3.5,0-5.9,3-8.9,2-2,4.5-2.5,6.8-1.6-.3.3-.7.7-.8,1.2-4.5,6.1-3.1,12.2,2.5,14.6-2,3.6-3.4,7.5-4.1,11.6-4.9,26.7,9.1,47.5,34,51.8,18,3,32.2-1.8,40.9-11.4v9.8h50.5v-10.9h-9.6l-1-.2c-2-.2-3.1-1.7-3.3-4v-30.7c0-11.4,4.6-19.3,13.5-23.4,12.2-5.8,24.2,1,25.4,11.9.2,1.3.2,3.3.2,7.3v32.5c-.5,4.9-1.2,6.1-3.3,6.6h-10.1v10.9h47.8v-10.9h-7.9c-4.3,0-5.8-1.2-5.9-4.1ZM135.6,333c-.2,18.1-6.8,28.3-22.2,33.8-3.1,1.2-6.3,1.9-9.4,1.9-12.1.5-20-5.1-22.2-13.1-2.9-11.1,1.2-17.9,15.5-23.2,3.4-1.2,7.5-2.4,29-8.2,1.2-.2,2.7-.7,9.4-3.6v12.3ZM251.6,393.3c-22.7,5.6-43-11.8-42-46.1.2-2.7.5-5.6.7-8.2,4.4-30.2,22.5-42.5,43-35.8,14.5,4.6,24.4,19.1,24.6,42.8.5,28.5-9.7,43.2-26.3,47.3ZM305.4,187.3c-.3,19.8-7.4,30.9-24.3,36.9-3.4,1.3-6.9,2.1-10.3,2.1-13.2.5-21.9-5.5-24.2-14.2-3.2-12.1,1.3-19.5,16.9-25.3,3.7-1.3,8.2-2.6,31.6-8.9,1.3-.3,2.9-.8,10.3-4v13.5ZM387.3,288.5c-.2,12.4-4.6,19.3-15.2,23.1-2.1.8-4.3,1.3-6.4,1.3-8.2.3-13.7-3.5-15.2-8.9-2-7.6.8-12.2,10.6-15.8,2.3-.8,5.1-1.7,19.8-5.6.8-.2,1.8-.5,6.4-2.5v8.4ZM426.2,346.9c2.1-3.1,4-4.3,6.1-4.6l1.2-.2,1.2-.2h1.6l19.8.5,6.8.2h4.6c.7,0,1.2,0,1.6.2,11.1,1,13.7,1.7,16.3,3.1,4.8,3,5.8,9.7,2,13.7-2.3,2.6-5.4,4.1-14,6.1-2.6.5-6.1,1-10.4,1.3-8.2.6-16.5,0-21.9-1.2-11.5-2.6-16-6.9-16.7-12-.3-2.3.3-4.8,1.8-6.9ZM459.1,304c-2.6.3-5.3.3-7.9-.2-10.2-1.5-15.5-6.4-17.5-15.5-.3-1.5-.5-3-.5-4.5-.3-11.7,6.3-20.1,17.3-22.1,3-.7,6.1-.7,9.1,0,9.4,1.8,15.5,8.1,16.8,16.7,2,14.2-4.9,23.6-17.3,25.6ZM521.6,281.7c1.8-10.6,8.7-17.8,16.8-19.8,14.4-3.5,25.2,4.8,26.9,20.8,0,1.2.2,2.1.2,3.3h-44.4c0-1.5.2-2.8.5-4.3ZM584.4,324.8h-7.8c3.2-3.9,5.6-8.4,7.1-13.5.3-1.5.7-3,.8-4.4h-11.9c-.2.8-.5,1.7-.7,2.5-4.6,14.7-17.5,21.8-32.3,17.6-11.2-3.1-18.3-12.2-19.3-25.9v-4h65.2c0-2.3,0-4.6-.2-6.9-.9-9.8-4.3-18.3-9.6-24.7h9.2c4.8,0,6.4,1.2,6.8,4.1l.2,1v40.3l.2,5.8c0,6.8-1.3,8.2-7.6,8.2Z"/>
    <path class="cls-1" d="M806.4,264.9h11.4c4.3.2,5.3,1.6,3.5,5.6-.3.8-.7,1.8-1.2,2.6l-20.3,40.7-20.5-40.7c-.5-.8-.8-1.7-1.2-2.5-1.8-4-1-5.6,2.8-5.8h11.5v-10.6h-56.1c-6.1-2-13.3-2.9-21.3-2.1-19.5,2-34.3,15.5-37.9,33.1-5.9,28.5,10.4,50.8,38.1,53.1,24.1,2,39.7-9.7,42.7-30,.2-1.7.3-3.3.3-5h-10.2c0,1.2-.2,2.3-.5,3.5-3.1,15.5-14.2,23.4-28.5,20.5-10.2-2-18-9.9-20.6-22.8-5.1-24.4,3.8-39.1,20-42.2,11.5-2.1,20.5,1.3,24.4,7.1-1.5.2-3.1.8-4.6,1.8-7.4,4.5-7.7,12.7-1.2,18,1.7,1.3,3.6,2.1,5.6,2.5,8.6,1.4,15.1-4.4,14.8-13.7l29.9,59-5.8,11.1-3,5.8c-.5,1-1.2,1.8-1.8,2.8-6.9,9.9-16.7,11.1-22.3,4.9,4.9.2,9.4-2.8,11.1-7.6,2.5-6.9-1.7-13.9-8.6-15-1.2-.2-2.5-.2-3.6-.2-9.6,1-16.3,12.5-11.2,23.9,3.6,7.9,12.9,12.9,23.8,11.9,10.6-1,16.8-5.8,25.7-21.4,1-1.6,1.8-3.3,2.8-4.9l38.9-75c.2-.7.5-1.2.8-1.7,2.1-3.5,3-4.4,4-5.3,1.3-.8,2.3-1.3,3.3-1.3l5.3-.2h.3v-10.6h-40.7v10.6Z"/>
  </g>
</svg>