<?xml version="1.0" encoding="UTF-8"?>
<svg id="Layer_1" data-name="Layer 1" xmlns="http://www.w3.org/2000/svg" version="1.1" viewBox="0 0 604.7 320">
  <defs>
    <style>
      .cls-1 {
        fill: #fff04b;
        stroke-width: 0px;
      }
    </style>
  </defs>
  <path class="cls-1" d="M73.7,100.7c.4,21.6-12.4,43.4-41.3,43.4H0V58.7h32.4c28.3,0,40.9,20.9,41.3,42M15.4,128.6h17c18.7,0,26.2-14.2,25.8-28.1-.4-13.3-7.9-26.6-25.8-26.6H15.4v54.7Z"/>
  <path class="cls-1" d="M142.5,128h-43.1l-7.1,16.1h-16.9l37-85.4h17l37,85.4h-17l-7-16.1ZM120.9,76.7l-15.3,36.4h30.6l-15.3-36.4Z"/>
  <polygon class="cls-1" points="190.3 84.1 190.3 129.3 232.7 129.3 232.7 144.1 174.7 144.1 174.7 84.1 190.3 84.1"/>
  <polygon class="cls-1" points="259.2 84.1 259.2 129.3 301.6 129.3 301.6 144.1 243.7 144.1 243.7 84.1 259.2 84.1"/>
  <path class="cls-1" d="M371.2,128h-43.1l-7.1,16.1h-16.9l37-85.4h17l37,85.4h-17l-7-16.1ZM349.6,76.7l-15.3,36.4h30.6l-15.3-36.4Z"/>
  <polygon class="cls-1" points="416.6 109.7 457.1 109.7 472.6 84.7 472.6 58.9 457.1 58.9 457.1 94.8 416.6 94.8 416.6 58.9 401 58.9 401 144.3 416.6 144.3 416.6 109.7"/>
  <polygon class="cls-1" points="73 199.3 46.1 236.4 43 236.4 16.7 199.2 16.7 261.3 1.2 261.3 1.2 175.9 19.1 175.9 44.9 212.6 70.7 175.9 88.5 175.9 88.5 261.3 73 261.3 73 199.3"/>
  <polygon class="cls-1" points="164.7 261.1 102.9 261.1 102.9 175.7 164.7 175.7 164.7 191.4 118.3 191.4 118.3 211 163 211 163 226 118.3 226 118.3 245.3 164.7 245.3 164.7 261.1"/>
  <path class="cls-1" d="M249.3,217.7c.4,21.6-12.4,43.4-41.3,43.4h-32.4v-85.4h32.4c28.3,0,40.9,20.9,41.3,42M191.1,245.7h17c18.7,0,26.2-14.2,25.8-28.1-.4-13.3-7.9-26.6-25.8-26.6h-17v54.7Z"/>
  <rect class="cls-1" x="262.9" y="175.7" width="15.4" height="85.4"/>
  <path class="cls-1" d="M363.3,261.1l10-16.1-30-69.2h-17l-37,85.4h16.9l7.1-16.1h43.1l6.9,16ZM319.4,230l15.3-36.4,15.3,36.4h-30.6Z"/>
  <polygon class="cls-1" points="604.7 0 539.5 0 341.2 320 406.3 320 604.7 0"/>
</svg>